<svg width="53" height="53" viewBox="0 0 53 53" fill="none" xmlns="http://www.w3.org/2000/svg">
<rect width="53" height="53" fill="#0F0F17"/>
<g clip-path="url(#clip0_7430_359)">
<path d="M45.7437 34.433C45.9345 34.5138 46.1254 34.5542 46.3162 34.5542C46.6213 34.5542 46.8885 34.4734 47.0792 34.2714C47.27 34.0693 47.4227 33.7863 47.499 33.4226C47.5753 33.0589 47.6516 32.6143 47.6516 32.1293V16.0445C47.6516 15.5595 47.6134 15.0745 47.499 14.5895C47.4227 14.1046 47.27 13.66 47.0792 13.2154C46.8885 12.771 46.6213 12.3668 46.3162 12.003C46.0109 11.6393 45.6293 11.316 45.2096 11.0331L44.0268 10.3056C43.607 10.0227 43.2255 9.90152 42.9202 9.90152C42.615 9.90152 42.3479 9.98235 42.1571 10.1844C41.9663 10.3865 41.8136 10.6694 41.7373 11.0331C41.6611 11.3968 41.5847 11.8414 41.5847 12.3263V28.4517C41.5847 28.9366 41.6229 29.4216 41.7373 29.9065C41.8136 30.3916 41.9663 30.836 42.1571 31.2807C42.3479 31.7253 42.615 32.1293 42.9202 32.4931C43.1873 32.8164 43.4925 33.0994 43.836 33.3419L41.9282 32.2102L14.5701 45.1024L16.9358 46.5168L22.3158 44.0112L28.0393 47.4463L23.8421 50.6796L26.2841 52.1345L47.6516 35.5646L45.7437 34.433ZM29.7181 46.0319L24.4907 42.8797L41.7755 34.7159L43.6834 35.8475L29.7181 46.0319ZM45.2096 31.6444L44.0268 30.9169C43.7597 30.7553 43.607 30.5532 43.4925 30.2703C43.3781 30.0278 43.34 29.7449 43.34 29.5025V13.3367C43.34 13.0943 43.3781 12.8921 43.4925 12.7305C43.607 12.6093 43.7597 12.6093 44.0268 12.771L45.2096 13.4984C45.4385 13.66 45.6293 13.8622 45.7437 14.1046C45.8582 14.3875 45.8964 14.63 45.8964 14.8724V30.9977C45.8964 31.2403 45.8582 31.4424 45.7437 31.604C45.5912 31.806 45.4385 31.7657 45.2096 31.6444Z" fill="white"/>
<path d="M38.9893 30.1087C39.3328 30.1087 39.5617 30.0279 39.7906 29.8258C39.9814 29.6237 40.1341 29.3408 40.2485 28.977C40.363 28.6133 40.4011 28.1688 40.4011 27.6838V11.3969C40.4011 10.912 40.363 10.4269 40.2485 9.94192C40.1341 9.45697 40.0195 9.01239 39.7906 8.56783C39.5999 8.12328 39.3328 7.71913 38.9893 7.3554C38.646 6.99168 38.2644 6.62795 37.8065 6.38546L36.5473 5.658C36.0894 5.3751 35.6698 5.25387 35.3645 5.21344C35.021 5.21344 34.754 5.29428 34.5632 5.49634C34.3724 5.69842 34.2198 5.98132 34.1053 6.34504C33.9909 6.70877 33.9528 7.15333 33.9528 7.63831V23.8849C33.9528 24.3698 33.9909 24.8548 34.1053 25.3397C34.2198 25.8248 34.3342 26.3097 34.5632 26.7139C34.754 27.1585 35.021 27.5625 35.3645 27.9667C35.5934 28.2091 35.8605 28.4517 36.1276 28.6537L35.708 28.4113L26.9701 33.6652L26.8938 27.8051L30.7857 25.461L33.3041 6.38546V3.75853L27.2754 0V2.62692L31.3963 5.17303L28.4201 24.0061L21.9335 27.8858L21.9717 27.8455L23.2308 26.9968C23.6887 26.6735 24.1083 26.3097 24.4137 25.8652C24.757 25.4206 25.0241 24.976 25.2149 24.4911C25.4058 24.0061 25.5583 23.4807 25.6728 22.9149C25.7872 22.3491 25.8254 21.8237 25.8254 21.258V2.99066C25.8254 2.46527 25.7872 1.9803 25.6728 1.53575C25.5583 1.1316 25.4439 0.808286 25.2149 0.5658C25.0241 0.323314 24.757 0.242486 24.4137 0.242486C24.0702 0.242486 23.6887 0.404143 23.2308 0.727458L21.9717 1.57616C21.5138 1.89948 21.094 2.2632 20.7888 2.70776C20.4453 3.15231 20.1783 3.59688 19.9875 4.08185C19.7967 4.56682 19.6441 5.09221 19.5297 5.658C19.4152 6.22381 19.3771 6.74919 19.3771 7.31499V25.6226C19.3771 26.1885 19.4152 26.633 19.5297 27.0776C19.6441 27.4818 19.7586 27.8051 19.9875 28.0475C20.1783 28.29 20.4453 28.3708 20.7888 28.3708C21.0177 28.3708 21.323 28.29 21.6282 28.088L14.3403 32.493L15.5613 31.6445C16.0192 31.3211 16.4009 30.9574 16.7442 30.5128C17.0877 30.0683 17.3166 29.6237 17.5455 29.1387C17.7363 28.6537 17.8889 28.1284 18.0033 27.5625C18.0797 26.9968 18.156 26.4714 18.156 25.9057V7.67873C18.156 7.15334 18.1178 6.66837 18.0033 6.22381C17.927 5.81965 17.7744 5.49634 17.5455 5.25387C17.3547 5.01137 17.0877 4.93055 16.7442 4.93055C16.439 4.93055 16.0192 5.09221 15.5613 5.41552L14.3403 6.26422C13.8825 6.58753 13.5009 6.95126 13.1575 7.39581C12.8141 7.84038 12.5852 8.28494 12.3562 8.7699C12.1655 9.25486 12.0128 9.78027 11.9365 10.346C11.8602 10.912 11.7839 11.4372 11.7839 12.0031V30.2703C11.7839 30.8361 11.822 31.2807 11.9365 31.7253C12.0128 32.1295 12.1655 32.4527 12.3562 32.6952C12.547 32.9377 12.8141 33.0185 13.1575 33.0185C13.3865 33.0185 13.6154 32.9377 13.9206 32.776L6.36569 37.262C6.40385 37.2216 6.48016 37.1812 6.51832 37.1407L7.66301 36.3325C8.12088 36.0092 8.50245 35.6455 8.84585 35.2008C9.15111 34.7563 9.4182 34.3118 9.64714 33.7863C9.83792 33.3014 9.99054 32.7357 10.105 32.2102C10.1813 31.6445 10.2576 31.0786 10.2576 30.5532V20.7325C10.2576 20.1668 10.2195 19.6818 10.105 19.2776C9.99054 18.8331 9.87607 18.5097 9.64714 18.3077C9.45636 18.0653 9.18925 17.9844 8.84585 17.9844C8.5406 17.9844 8.12088 18.146 7.66301 18.4693L5.79335 19.7626V14.2663L9.95239 11.3969V8.48701L4 12.6092V23.8849L7.70116 21.3388C7.96825 21.1367 8.15904 21.1367 8.27351 21.258C8.38798 21.4196 8.42614 21.6217 8.42614 21.9854V31.8062C8.42614 32.1295 8.38798 32.4123 8.27351 32.6952C8.15904 32.9781 7.96825 33.2206 7.70116 33.4226L6.55647 34.2309C6.28938 34.4329 6.0986 34.4329 5.98413 34.2713C5.86966 34.1096 5.8315 33.8672 5.8315 33.5843V26.3501L4 27.6029V34.8372C4 35.4029 4.03816 35.8879 4.15263 36.2921C4.22894 36.7366 4.38156 37.0599 4.57234 37.262C4.76313 37.5045 5.03022 37.5853 5.37363 37.5853C5.60257 37.5853 5.90782 37.5045 6.21307 37.3024L4 38.6765L6.40385 40.091L23.6887 29.7046L23.9176 35.4433L11.326 43.0008L13.7298 44.4154L38.1118 29.745C38.417 30.0279 38.7223 30.1087 38.9893 30.1087ZM13.768 29.6641C13.6535 29.5025 13.6154 29.3003 13.6154 28.977V10.7098C13.6154 10.4269 13.6535 10.1036 13.768 9.82064C13.8825 9.5378 14.0733 9.29532 14.3403 9.09321L15.5613 8.24452C15.8285 8.08286 15.9811 8.04245 16.0956 8.20411C16.21 8.36576 16.2481 8.56783 16.2481 8.8912V27.1585C16.2481 27.4413 16.21 27.7647 16.0956 28.0475C15.9811 28.3304 15.7903 28.5729 15.5613 28.7346L14.3403 29.5833C14.0733 29.7854 13.8825 29.8258 13.768 29.6641ZM21.3993 25.0569C21.2849 24.8953 21.2467 24.6931 21.2467 24.3698V6.06215C21.2467 5.77925 21.2849 5.45594 21.3993 5.17303C21.5138 4.89013 21.7046 4.64766 21.9717 4.44558L23.2308 3.59688C23.4979 3.43522 23.6887 3.3948 23.8031 3.55646C23.9176 3.71812 23.9558 3.92019 23.9558 4.24351V22.5512C23.9558 22.8341 23.9176 23.1574 23.8031 23.4403C23.6887 23.7232 23.4979 23.9658 23.2308 24.1274L21.9717 24.976C21.7046 25.1781 21.5138 25.2186 21.3993 25.0569ZM36.5473 26.3906C36.2803 26.229 36.0894 26.0268 35.975 25.744C35.8605 25.5014 35.8224 25.2186 35.8224 24.976V8.72949C35.8224 8.44659 35.8605 8.24452 35.975 8.12328C36.0894 8.00204 36.2803 8.00204 36.5473 8.16369L37.8065 8.8912C38.0736 9.05285 38.2262 9.25486 38.3407 9.5378C38.4551 9.82064 38.4933 10.0632 38.4933 10.346V26.5925C38.4933 26.8756 38.4551 27.0372 38.3407 27.1989C38.2262 27.3201 38.0355 27.3201 37.8065 27.1585L36.5473 26.3906Z" fill="white"/>
</g>
<defs>
<clipPath id="clip0_7430_359">
<rect width="44" height="53" fill="white" transform="translate(4)"/>
</clipPath>
</defs>
</svg>
